<svg width="742" height="585" viewBox="0 0 742 585" fill="none" xmlns="http://www.w3.org/2000/svg">
<path d="M684.839 0H57.162C42.0069 0.0164664 27.4774 5.85933 16.7612 16.2467C6.04493 26.6341 0.0170187 40.7177 0 55.4077V388.258C0.0170363 402.948 6.04493 417.032 16.7612 427.419C27.4774 437.807 42.0069 443.65 57.162 443.666H684.839C699.994 443.649 714.523 437.806 725.239 427.419C735.955 417.032 741.983 402.948 742 388.258V55.4077C741.983 40.7178 735.955 26.6343 725.239 16.247C714.523 5.85959 699.994 0.0166291 684.839 0Z" fill="#6C63FF"/>
<path d="M637.018 580.941L503.36 451.04L661.149 456.2V571.227C661.178 573.951 660.361 576.619 658.804 578.884C657.247 581.148 655.023 582.903 652.423 583.919C650.681 584.627 648.812 584.995 646.924 585C645.078 584.994 643.253 584.633 641.552 583.936C639.852 583.239 638.311 582.221 637.018 580.941V580.941Z" fill="#6C63FF"/>
<path d="M501.931 59.4498C500.904 57.1533 499.185 55.1907 496.987 53.8051C494.788 52.4194 492.207 51.6714 489.562 51.6537H242.671C239.122 51.6555 235.719 52.9844 233.21 55.3484C230.7 57.7124 229.289 60.9183 229.288 64.2615V358.501C229.289 361.844 230.7 365.05 233.21 367.414C235.719 369.778 239.122 371.107 242.671 371.108H489.571C493.119 371.104 496.52 369.774 499.029 367.411C501.538 365.047 502.949 361.843 502.954 358.501V64.2615C502.96 62.6099 502.615 60.9739 501.94 59.4498H501.931ZM499.973 358.501C499.97 361.101 498.872 363.594 496.92 365.433C494.968 367.271 492.322 368.306 489.562 368.309H242.671C239.91 368.308 237.263 367.275 235.31 365.436C233.358 363.597 232.261 361.103 232.26 358.502V64.2632C232.263 61.663 233.362 59.1704 235.313 57.3318C237.265 55.4932 239.911 54.4587 242.671 54.4552H489.571C491.65 54.4626 493.68 55.0535 495.401 56.1524C497.122 57.2513 498.457 58.8084 499.234 60.625C499.386 60.987 499.517 61.3564 499.626 61.7315C499.862 62.557 499.982 63.4082 499.982 64.2632L499.973 358.501Z" fill="white"/>
<path d="M450.408 121.123H376.041C374.463 121.123 372.95 120.532 371.834 119.481C370.718 118.43 370.091 117.004 370.091 115.518C370.091 114.031 370.718 112.606 371.834 111.555C372.95 110.503 374.463 109.913 376.041 109.913H450.408C451.986 109.913 453.499 110.503 454.615 111.555C455.731 112.606 456.358 114.031 456.358 115.518C456.358 117.004 455.731 118.43 454.615 119.481C453.499 120.532 451.986 121.123 450.408 121.123V121.123Z" fill="white"/>
<path d="M450.408 150.546H376.041C375.259 150.547 374.484 150.403 373.762 150.122C373.039 149.841 372.382 149.428 371.829 148.908C371.275 148.387 370.837 147.769 370.537 147.088C370.238 146.408 370.083 145.678 370.083 144.942C370.083 144.205 370.238 143.476 370.537 142.795C370.837 142.115 371.275 141.496 371.829 140.976C372.382 140.455 373.039 140.043 373.762 139.761C374.484 139.48 375.259 139.336 376.041 139.337H450.408C451.19 139.336 451.964 139.48 452.687 139.761C453.41 140.043 454.067 140.455 454.62 140.976C455.173 141.496 455.612 142.115 455.912 142.795C456.211 143.476 456.365 144.205 456.365 144.942C456.365 145.678 456.211 146.408 455.912 147.088C455.612 147.769 455.173 148.387 454.62 148.908C454.067 149.428 453.41 149.841 452.687 150.122C451.964 150.403 451.19 150.547 450.408 150.546V150.546Z" fill="white"/>
<path d="M337.884 167.3H283.537C281.762 167.299 280.061 166.634 278.806 165.452C277.551 164.27 276.845 162.667 276.843 160.995V100.578C276.845 98.906 277.551 97.3032 278.806 96.121C280.061 94.9389 281.762 94.274 283.537 94.2722H337.884C339.659 94.274 341.36 94.9389 342.615 96.121C343.87 97.3032 344.575 98.906 344.577 100.578V160.995C344.575 162.667 343.87 164.27 342.615 165.452C341.36 166.634 339.659 167.299 337.884 167.3V167.3Z" fill="white"/>
<path d="M449.892 210.796H281.823C280.245 210.796 278.732 210.206 277.616 209.154C276.5 208.103 275.873 206.678 275.873 205.191C275.873 203.705 276.5 202.279 277.616 201.228C278.732 200.177 280.245 199.586 281.823 199.586H449.892C451.47 199.586 452.983 200.177 454.099 201.228C455.215 202.279 455.841 203.705 455.841 205.191C455.841 206.678 455.215 208.103 454.099 209.154C452.983 210.206 451.47 210.796 449.892 210.796V210.796Z" fill="white"/>
<path d="M449.892 240.22H281.823C280.245 240.22 278.732 239.629 277.616 238.578C276.5 237.527 275.873 236.102 275.873 234.615C275.873 233.129 276.5 231.703 277.616 230.652C278.732 229.601 280.245 229.01 281.823 229.01H449.892C451.47 229.01 452.983 229.601 454.099 230.652C455.215 231.703 455.841 233.129 455.841 234.615C455.841 236.102 455.215 237.527 454.099 238.578C452.983 239.629 451.47 240.22 449.892 240.22V240.22Z" fill="white"/>
<path d="M449.892 269.644H281.823C280.246 269.642 278.735 269.05 277.621 268C276.507 266.949 275.881 265.524 275.881 264.039C275.881 262.554 276.507 261.129 277.621 260.078C278.735 259.028 280.246 258.436 281.823 258.434H449.892C450.674 258.433 451.448 258.577 452.171 258.859C452.894 259.14 453.551 259.553 454.104 260.073C454.657 260.594 455.096 261.212 455.396 261.892C455.695 262.573 455.849 263.302 455.849 264.039C455.849 264.776 455.695 265.505 455.396 266.186C455.096 266.866 454.657 267.484 454.104 268.005C453.551 268.525 452.894 268.938 452.171 269.219C451.448 269.501 450.674 269.645 449.892 269.644V269.644Z" fill="white"/>
<path d="M449.892 299.068H281.823C280.245 299.068 278.732 298.477 277.616 297.426C276.5 296.375 275.873 294.949 275.873 293.463C275.873 291.976 276.5 290.551 277.616 289.5C278.732 288.449 280.245 287.858 281.823 287.858H449.892C451.47 287.858 452.983 288.449 454.099 289.5C455.215 290.551 455.841 291.976 455.841 293.463C455.841 294.949 455.215 296.375 454.099 297.426C452.983 298.477 451.47 299.068 449.892 299.068V299.068Z" fill="white"/>
<path d="M449.892 328.492H281.823C280.245 328.492 278.732 327.901 277.616 326.85C276.5 325.799 275.873 324.373 275.873 322.887C275.873 321.4 276.5 319.975 277.616 318.924C278.732 317.872 280.245 317.282 281.823 317.282H449.892C451.47 317.282 452.983 317.872 454.099 318.924C455.215 319.975 455.841 321.4 455.841 322.887C455.841 324.373 455.215 325.799 454.099 326.85C452.983 327.901 451.47 328.492 449.892 328.492V328.492Z" fill="white"/>
<path d="M560.693 54.0897C560.693 83.6588 535.239 107.679 503.776 107.679C472.313 107.679 446.859 83.6588 446.859 54.0897C446.859 24.5206 472.313 0.5 503.776 0.5C535.239 0.5 560.693 24.5206 560.693 54.0897Z" fill="white" stroke="white"/>
<path d="M498.087 74.7233C496.795 74.7254 495.537 74.3317 494.504 73.6017L494.44 73.5564L480.946 63.8323C480.321 63.3809 479.797 62.818 479.403 62.1757C479.009 61.5334 478.753 60.8243 478.649 60.0888C478.546 59.3534 478.598 58.606 478.802 57.8893C479.005 57.1727 479.356 56.5008 479.835 55.9121C480.315 55.3234 480.912 54.8293 481.594 54.4581C482.276 54.0869 483.028 53.8459 483.809 53.7487C484.59 53.6516 485.383 53.7002 486.144 53.8919C486.905 54.0836 487.618 54.4146 488.243 54.8659L496.983 61.18L517.637 35.7966C518.116 35.2081 518.713 34.7142 519.394 34.3432C520.076 33.9721 520.828 33.7312 521.609 33.6341C522.389 33.537 523.182 33.5856 523.943 33.7772C524.703 33.9689 525.416 34.2997 526.041 34.7509L526.042 34.7521L525.914 34.9198L526.046 34.7521C527.306 35.6646 528.131 37.0108 528.338 38.4953C528.546 39.9798 528.121 41.4814 527.154 42.6705L502.861 72.5135C502.299 73.2012 501.577 73.7576 500.75 74.1396C499.922 74.5217 499.013 74.7191 498.092 74.7165L498.087 74.7233Z" fill="#6C63FF"/>
<path d="M286.609 439C301.852 439 314.209 427.359 314.209 413C314.209 398.641 301.852 387 286.609 387C271.367 387 259.01 398.641 259.01 413C259.01 427.359 271.367 439 286.609 439Z" fill="white"/>
<path d="M374.715 439C389.958 439 402.315 427.359 402.315 413C402.315 398.641 389.958 387 374.715 387C359.473 387 347.116 398.641 347.116 413C347.116 427.359 359.473 439 374.715 439Z" fill="white"/>
<path d="M462.821 439C478.064 439 490.421 427.359 490.421 413C490.421 398.641 478.064 387 462.821 387C447.578 387 435.222 398.641 435.222 413C435.222 427.359 447.578 439 462.821 439Z" fill="white"/>
</svg>
