<svg width="620" height="226" viewBox="0 0 620 226" fill="none" xmlns="http://www.w3.org/2000/svg">
<path d="M513.792 210.452H263.899C262.574 210.451 261.303 209.923 260.365 208.986C259.428 208.049 258.901 206.778 258.899 205.452V158.352H260.899V205.452C260.9 206.248 261.216 207.01 261.779 207.573C262.341 208.135 263.104 208.451 263.899 208.452H513.792C514.587 208.451 515.35 208.135 515.912 207.573C516.475 207.01 516.791 206.248 516.792 205.452V158.023H518.792V205.452C518.79 206.778 518.263 208.049 517.326 208.986C516.389 209.923 515.118 210.451 513.792 210.452V210.452Z" fill="#3F3D56"/>
<path d="M604.379 157.352H17.1594V159.352H604.379V157.352Z" fill="#3F3D56"/>
<path d="M17.202 175.398C26.7024 175.398 34.404 167.696 34.404 158.196C34.404 148.696 26.7024 140.994 17.202 140.994C7.70159 140.994 0 148.696 0 158.196C0 167.696 7.70159 175.398 17.202 175.398Z" fill="#6C63FF"/>
<path d="M192.007 175.398C201.507 175.398 209.209 167.696 209.209 158.196C209.209 148.696 201.507 140.994 192.007 140.994C182.507 140.994 174.805 148.696 174.805 158.196C174.805 167.696 182.507 175.398 192.007 175.398Z" fill="#6C63FF"/>
<path d="M310.639 225.959C320.139 225.959 327.841 218.257 327.841 208.757C327.841 199.257 320.139 191.555 310.639 191.555C301.139 191.555 293.437 199.257 293.437 208.757C293.437 218.257 301.139 225.959 310.639 225.959Z" fill="#3F3D56"/>
<path d="M400.826 225.959C410.326 225.959 418.028 218.257 418.028 208.757C418.028 199.257 410.326 191.555 400.826 191.555C391.326 191.555 383.624 199.257 383.624 208.757C383.624 218.257 391.326 225.959 400.826 225.959Z" fill="#CCCCCC"/>
<path d="M357.123 175.398C366.623 175.398 374.325 167.696 374.325 158.196C374.325 148.696 366.623 140.994 357.123 140.994C347.623 140.994 339.921 148.696 339.921 158.196C339.921 167.696 347.623 175.398 357.123 175.398Z" fill="#6C63FF"/>
<path d="M602.022 175.398C611.522 175.398 619.224 167.696 619.224 158.196C619.224 148.696 611.522 140.994 602.022 140.994C592.522 140.994 584.82 148.696 584.82 158.196C584.82 167.696 592.522 175.398 602.022 175.398Z" fill="#6C63FF"/>
<path d="M517.792 175.398C527.292 175.398 534.994 167.696 534.994 158.196C534.994 148.696 527.292 140.994 517.792 140.994C508.292 140.994 500.59 148.696 500.59 158.196C500.59 167.696 508.292 175.398 517.792 175.398Z" fill="#6C63FF"/>
<path d="M324.834 65H292.927V86.9898H324.834V65Z" fill="#3F3D56"/>
<path d="M31.9065 65H0V86.9898H31.9065V65Z" fill="#6C63FF"/>
<path d="M139.979 65H108.073V86.9898H139.979V65Z" fill="#CCCCCC"/>
<path d="M70.5447 159.352C70.2795 159.352 70.0251 159.247 69.8376 159.059C69.6501 158.872 69.5447 158.617 69.5447 158.352V108.99C69.5462 107.664 70.0735 106.393 71.0109 105.456C71.9482 104.519 73.2191 103.991 74.5447 103.99H123.219C123.485 103.99 123.739 104.095 123.927 104.283C124.114 104.47 124.219 104.725 124.219 104.99C124.219 105.255 124.114 105.509 123.927 105.697C123.739 105.885 123.485 105.99 123.219 105.99H74.5447C73.7493 105.991 72.9867 106.307 72.4243 106.87C71.8619 107.432 71.5455 108.194 71.5447 108.99V158.352C71.5447 158.617 71.4393 158.872 71.2518 159.059C71.0642 159.247 70.8099 159.352 70.5447 159.352V159.352Z" fill="#3F3D56"/>
<path d="M125.507 121.818C135.007 121.818 142.709 114.116 142.709 104.616C142.709 95.1155 135.007 87.4139 125.507 87.4139C116.007 87.4139 108.305 95.1155 108.305 104.616C108.305 114.116 116.007 121.818 125.507 121.818Z" fill="#E6E6E6"/>
<path d="M455.545 158.352H453.545V108.99C453.546 107.664 454.074 106.393 455.011 105.456C455.948 104.519 457.219 103.991 458.545 103.99H507.219V105.99H458.545C457.749 105.991 456.987 106.307 456.424 106.87C455.862 107.432 455.546 108.194 455.545 108.99V158.352Z" fill="#3F3D56"/>
<path d="M509.507 121.818C519.007 121.818 526.709 114.116 526.709 104.616C526.709 95.1155 519.007 87.4139 509.507 87.4139C500.007 87.4139 492.305 95.1155 492.305 104.616C492.305 114.116 500.007 121.818 509.507 121.818Z" fill="#E6E6E6"/>
</svg>
